<svg aria-hidden="true" style="position: absolute; width: 0; height: 0; overflow: hidden;" version="1.1" xmlns="http://www.w3.org/2000/svg" xmlns:xlink="http://www.w3.org/1999/xlink">
<defs>
<symbol id="icon-home" viewBox="0 0 24 24">
<path d="M12 3c0 0-6.186 5.34-9.643 8.232-0.203 0.184-0.357 0.452-0.357 0.768 0 0.553 0.447 1 1 1h2v7c0 0.553 0.447 1 1 1h3c0.553 0 1-0.448 1-1v-4h4v4c0 0.552 0.447 1 1 1h3c0.553 0 1-0.447 1-1v-7h2c0.553 0 1-0.447 1-1 0-0.316-0.154-0.584-0.383-0.768-3.433-2.892-9.617-8.232-9.617-8.232z"></path>
</symbol>
<symbol id="icon-star-outline" viewBox="0 0 24 24">
<path d="M16.855 20.966c-0.224 0-0.443-0.050-0.646-0.146-0.035-0.014-0.069-0.031-0.104-0.051l-4.107-2.343-4.107 2.344c-0.035 0.020-0.070 0.037-0.106 0.053-0.488 0.228-1.085 0.174-1.521-0.143-0.469-0.34-0.701-0.933-0.586-1.509l0.957-4.642c-0.374-0.34-0.962-0.875-1.602-1.457l-1.895-1.725c-0.027-0.025-0.055-0.053-0.078-0.082-0.375-0.396-0.509-0.97-0.34-1.492 0.173-0.524 0.62-0.912 1.16-1.009 0.034-0.008 0.067-0.014 0.102-0.018l4.701-0.521 1.946-4.31c0.017-0.038 0.036-0.075 0.060-0.11 0.262-0.473 0.764-0.771 1.309-0.771 0.543 0 1.044 0.298 1.309 0.77 0.021 0.036 0.041 0.073 0.060 0.112l1.948 4.312 4.701 0.521c0.034 0.003 0.068 0.009 0.104 0.017 0.539 0.1 0.986 0.486 1.158 1.012 0.17 0.521 0.035 1.098-0.34 1.494-0.024 0.026-0.051 0.054-0.078 0.078l-3.498 3.184 0.957 4.632c0.113 0.587-0.118 1.178-0.59 1.519-0.252 0.182-0.556 0.281-0.874 0.281zM8.706 14.402c-0.039 0.182-0.466 2.246-0.845 4.082l3.643-2.077c0.307-0.175 0.684-0.175 0.99 0l3.643 2.075-0.849-4.104c-0.071-0.346 0.045-0.705 0.308-0.942l3.1-2.822-4.168-0.461c-0.351-0.039-0.654-0.26-0.801-0.584l-1.728-3.821-1.726 3.821c-0.146 0.322-0.45 0.543-0.801 0.584l-4.168 0.461 3.1 2.822c0.272 0.246 0.384 0.617 0.302 0.966z"></path>
</symbol>
<symbol id="icon-pen" viewBox="0 0 24 24">
<path d="M21.329 7.207c0-1.212-0.472-2.352-1.329-3.207s-1.996-1.329-3.207-1.329c-1.199 0-2.327 0.463-3.18 1.304-0.027 0.025-7.967 7.964-7.967 7.964-0.373 0.373-0.717 0.91-0.967 1.514-0.195 0.473-1.979 5.863-2.336 6.939-0.119 0.358-0.025 0.754 0.242 1.021 0.189 0.189 0.445 0.293 0.707 0.293 0.105 0 0.211-0.018 0.314-0.051 1.076-0.355 6.465-2.141 6.938-2.336 0.603-0.248 1.14-0.592 1.515-0.967l2.157-2.156c0.025 0.001 0.050 0.010 0.076 0.010 0.64 0 1.28-0.244 1.769-0.732l4.5-4.5c0.696-0.695 0.887-1.699 0.588-2.572 0.107-0.386 0.18-0.783 0.18-1.195zM9.465 17.586c-0.406 0.143-1.145 0.393-2.038 0.691l-1.704-1.704c0.301-0.894 0.551-1.634 0.691-2.038l3.051 3.051zM5.368 17.633l0.999 0.999c-0.493 0.164-1 0.333-1.498 0.499 0.166-0.498 0.335-1.006 0.499-1.498zM13.066 14.52l-2.42 2.42c-0.061 0.061-0.151 0.119-0.235 0.18l-3.53-3.529c0.061-0.084 0.12-0.176 0.18-0.234l7.131-7.131 2.731 2.731-3.69 3.69c-0.513 0.512-0.549 1.289-0.167 1.873zM19.146 9.561l-4.5 4.5c-0.098 0.099-0.226 0.146-0.354 0.146s-0.256-0.049-0.354-0.146c-0.195-0.194-0.195-0.512 0-0.707l4.5-4.5c0.194-0.194 0.512-0.194 0.707 0 0.196 0.195 0.197 0.511 0.001 0.707zM19.253 7.797c-0.519-0.168-1.108-0.062-1.521 0.35l-0.102 0.102-2.731-2.731 0.078-0.078c0.984-0.98 2.652-0.981 3.608-0.023 0.479 0.479 0.743 1.116 0.743 1.793 0.001 0.199-0.030 0.394-0.075 0.587z"></path>
</symbol>
</defs>
</svg>
